<svg width="520" height="524" viewBox="0 0 520 524" fill="none" xmlns="http://www.w3.org/2000/svg">
<g filter="url(#filter0_f_504_4)">
<g filter="url(#filter1_d_504_4)">
<path d="M23.461 263.472C23.4456 305.436 34.3806 346.398 55.1659 382.504L21.4666 505.877L147.388 472.771C182.082 491.742 221.144 501.74 260.896 501.755H260.998C391.91 501.755 498.478 394.935 498.533 263.665C498.555 200.044 473.869 140.224 429.025 95.2215C384.174 50.2202 324.536 25.4246 260.998 25.3965C130.065 25.3965 23.5131 132.2 23.461 263.472V263.472Z" fill="black"/>
</g>
<path d="M23.461 263.472C23.4456 305.436 34.3806 346.398 55.1659 382.504L21.4666 505.877L147.388 472.771C182.082 491.742 221.144 501.74 260.896 501.755H260.998C391.91 501.755 498.478 394.935 498.533 263.665C498.555 200.044 473.869 140.224 429.025 95.2215C384.174 50.2202 324.536 25.4246 260.998 25.3965C130.065 25.3965 23.5131 132.2 23.461 263.472V263.472Z" fill="black" fill-opacity="0.2"/>
</g>
<path d="M31.9852 260.993C31.9732 301.352 42.5182 340.76 62.5712 375.494L30.0667 494.179L151.522 462.332C184.984 480.57 222.658 490.194 261.001 490.208H261.104C387.368 490.208 490.152 387.459 490.204 261.172C490.23 199.975 466.419 142.432 423.159 99.1412C379.908 55.8502 322.383 31.9969 261.095 31.9695C134.815 31.9695 32.0364 134.71 31.9852 260.993Z" fill="url(#paint0_linear_504_4)"/>
<path d="M23.805 260.914C23.7897 302.728 34.7152 343.546 55.4817 379.526L21.8123 502.462L147.624 469.474C182.287 488.377 221.314 498.34 261.032 498.355H261.134C391.931 498.355 498.404 391.912 498.46 261.107C498.482 197.709 473.818 138.1 429.013 93.256C384.202 48.4135 324.617 23.7067 261.134 23.6777C130.316 23.6777 23.8571 130.104 23.8042 260.914H23.805ZM98.7267 373.331L94.0303 365.872C74.2836 334.474 63.859 298.189 63.8761 260.93C63.9179 152.204 152.402 63.7505 261.209 63.7505C313.9 63.7718 363.42 84.3095 400.667 121.581C437.91 158.851 458.404 208.397 458.389 261.091C458.343 369.82 369.855 458.286 261.135 458.286H261.058C225.656 458.268 190.939 448.763 160.659 430.794L153.453 426.523L78.794 446.097L98.7267 373.331Z" fill="url(#paint1_linear_504_4)"/>
<path fill-rule="evenodd" clip-rule="evenodd" d="M201.818 161.737C197.376 151.863 192.7 151.664 188.474 151.491C185.018 151.343 181.06 151.352 177.11 151.352C173.157 151.352 166.731 152.837 161.298 158.771C155.862 164.705 140.541 179.05 140.541 208.225C140.541 237.404 161.793 265.594 164.755 269.554C167.72 273.509 205.779 335.292 266.052 359.062C316.144 378.815 326.338 374.886 337.211 373.898C348.083 372.909 372.295 359.556 377.236 345.709C382.179 331.864 382.179 319.997 380.696 317.516C379.213 315.044 375.26 313.562 369.329 310.596C363.398 307.631 334.245 293.283 328.809 291.306C323.372 289.33 319.418 288.341 315.465 294.278C311.511 300.209 300.155 313.562 296.693 317.517C293.234 321.479 289.775 321.973 283.844 319.008C277.913 316.033 258.815 309.778 236.158 289.577C218.529 273.86 206.629 254.45 203.168 248.514C199.709 242.582 202.798 239.37 205.772 236.414C208.435 233.757 211.704 229.492 214.668 226.029C217.627 222.567 218.616 220.095 220.593 216.141C222.569 212.181 221.581 208.718 220.099 205.753C218.616 202.788 207.092 173.461 201.818 161.737Z" fill="white"/>
<defs>
<filter id="filter0_f_504_4" x="18.0528" y="21.9828" width="483.894" height="487.308" filterUnits="userSpaceOnUse" color-interpolation-filters="sRGB">
<feFlood flood-opacity="0" result="BackgroundImageFix"/>
<feBlend mode="normal" in="SourceGraphic" in2="BackgroundImageFix" result="shape"/>
<feGaussianBlur stdDeviation="1.70686" result="effect1_foregroundBlur_504_4"/>
</filter>
<filter id="filter1_d_504_4" x="0.130831" y="0.647047" width="519.738" height="523.152" filterUnits="userSpaceOnUse" color-interpolation-filters="sRGB">
<feFlood flood-opacity="0" result="BackgroundImageFix"/>
<feColorMatrix in="SourceAlpha" type="matrix" values="0 0 0 0 0 0 0 0 0 0 0 0 0 0 0 0 0 0 127 0" result="hardAlpha"/>
<feOffset dy="-3.41372"/>
<feGaussianBlur stdDeviation="10.6679"/>
<feComposite in2="hardAlpha" operator="out"/>
<feColorMatrix type="matrix" values="0 0 0 0 0 0 0 0 0 0 0 0 0 0 0 0 0 0 0.21 0"/>
<feBlend mode="normal" in2="BackgroundImageFix" result="effect1_dropShadow_504_4"/>
<feBlend mode="normal" in="SourceGraphic" in2="effect1_dropShadow_504_4" result="shape"/>
</filter>
<linearGradient id="paint0_linear_504_4" x1="260.134" y1="494.179" x2="260.134" y2="31.9691" gradientUnits="userSpaceOnUse">
<stop stop-color="#20B038"/>
<stop offset="1" stop-color="#60D66A"/>
</linearGradient>
<linearGradient id="paint1_linear_504_4" x1="260.137" y1="502.463" x2="260.137" y2="23.678" gradientUnits="userSpaceOnUse">
<stop stop-color="#F9F9F9"/>
<stop offset="1" stop-color="white"/>
</linearGradient>
</defs>
</svg>
